<svg width="46" height="46" viewBox="0 0 46 46" fill="none" xmlns="http://www.w3.org/2000/svg">
<rect width="46" height="46" rx="23" fill="#A1E5C5"/>
<path d="M34 24.5C34.8284 24.5 35.5 23.8284 35.5 23C35.5 22.1716 34.8284 21.5 34 21.5V24.5ZM12.9393 21.9393C12.3536 22.5251 12.3536 23.4749 12.9393 24.0607L22.4853 33.6066C23.0711 34.1924 24.0208 34.1924 24.6066 33.6066C25.1924 33.0208 25.1924 32.0711 24.6066 31.4853L16.1213 23L24.6066 14.5147C25.1924 13.9289 25.1924 12.9792 24.6066 12.3934C24.0208 11.8076 23.0711 11.8076 22.4853 12.3934L12.9393 21.9393ZM34 23V21.5L14 21.5V23V24.5L34 24.5V23Z" fill="white"/>
</svg>
