<svg width="64" height="64" viewBox="0 0 64 64" fill="none" xmlns="http://www.w3.org/2000/svg">
<path d="M31.7656 32.9551C31.9121 32.8774 32.0879 32.8774 32.2344 32.9551L57.8398 46.5586C58.1937 46.7466 58.1937 47.2534 57.8398 47.4414L32.2344 61.0449C32.0879 61.1226 31.9121 61.1226 31.7656 61.0449L6.16016 47.4414C5.80626 47.2534 5.80626 46.7466 6.16016 46.5586L31.7656 32.9551Z" fill="white" stroke="#E5E5E5" stroke-width="5"/>
<path d="M31.7656 22.9551C31.9121 22.8774 32.0879 22.8774 32.2344 22.9551L57.8398 36.5586C58.1937 36.7466 58.1937 37.2534 57.8398 37.4414L32.2344 51.0449C32.0879 51.1226 31.9121 51.1226 31.7656 51.0449L6.16016 37.4414C5.80626 37.2534 5.80626 36.7466 6.16016 36.5586L31.7656 22.9551Z" fill="white" stroke="#E5E5E5" stroke-width="5"/>
<path d="M31.7656 12.9551C31.9121 12.8774 32.0879 12.8774 32.2344 12.9551L57.8398 26.5586C58.1937 26.7466 58.1937 27.2534 57.8398 27.4414L32.2344 41.0449C32.0879 41.1226 31.9121 41.1226 31.7656 41.0449L6.16016 27.4414C5.80626 27.2534 5.80626 26.7466 6.16016 26.5586L31.7656 12.9551Z" fill="white" stroke="#E5E5E5" stroke-width="5"/>
<path d="M31.7656 2.95508C31.9121 2.87739 32.0879 2.87739 32.2344 2.95508L57.8398 16.5586C58.1937 16.7466 58.1937 17.2534 57.8398 17.4414L32.2344 31.0449C32.0879 31.1226 31.9121 31.1226 31.7656 31.0449L6.16016 17.4414C5.80626 17.2534 5.80626 16.7466 6.16016 16.5586L31.7656 2.95508Z" fill="white" stroke="#E5E5E5" stroke-width="5"/>
</svg>
