<svg width="46" height="46" viewBox="0 0 46 46" fill="none" xmlns="http://www.w3.org/2000/svg">
<rect x="46" y="46" width="46" height="46" rx="23" transform="rotate(180 46 46)" fill="#A1E5C5"/>
<path d="M12 21.5C11.1716 21.5 10.5 22.1716 10.5 23C10.5 23.8284 11.1716 24.5 12 24.5V21.5ZM33.0607 24.0607C33.6464 23.4749 33.6464 22.5251 33.0607 21.9393L23.5147 12.3934C22.9289 11.8076 21.9792 11.8076 21.3934 12.3934C20.8076 12.9792 20.8076 13.9289 21.3934 14.5147L29.8787 23L21.3934 31.4853C20.8076 32.0711 20.8076 33.0208 21.3934 33.6066C21.9792 34.1924 22.9289 34.1924 23.5147 33.6066L33.0607 24.0607ZM12 23V24.5L32 24.5V23V21.5L12 21.5V23Z" fill="white"/>
</svg>
