<svg width="480" height="200" viewBox="0 0 480 200" fill="none" xmlns="http://www.w3.org/2000/svg">
<path d="M137.375 0C140.458 0 142.958 0.395833 144.875 1.1875C146.792 1.9375 148.938 3.58333 151.312 6.125C153.688 8.66667 156.938 12.4792 161.062 17.5625C163.438 20.4792 166.271 23.8958 169.562 27.8125C169.82 28.0887 170.061 28.3708 170.29 28.6562C172.617 27.7603 174.958 27.3125 177.312 27.3125C177.979 27.3125 179.375 27.4375 181.5 27.6875C183.667 27.8958 185.833 29.1458 188 31.4375C188.167 31.6042 189.292 32.8542 191.375 35.1875C193.458 37.4792 195.875 40.1667 198.625 43.25C201.375 46.2917 203.833 49.0625 206 51.5625C207.706 53.531 208.843 54.8931 209.412 55.6475C211.634 56.2606 213.684 57.2113 215.562 58.5C218.271 55.7917 221.938 54.4375 226.562 54.4375H226.75C227.292 54.4792 227.792 54.5 228.25 54.5C230.333 54.5 232.062 54.7708 233.438 55.3125C234.812 55.8125 236.604 57.1875 238.812 59.4375C240.339 60.9931 242.433 63.2466 245.095 66.1963C245.578 64.6761 246.255 63.1107 247.125 61.5C249.125 57.8333 252.708 55.2917 257.875 53.875C259.625 53.375 261.375 53.125 263.125 53.125C266.583 53.125 270.104 54.0625 273.688 55.9375C275.312 56.9375 277.812 59.2708 281.188 62.9375C283.791 65.731 286.308 68.5249 288.742 71.3184C292.685 62.9549 296.415 55.1399 299.938 47.875L299.688 47.625C299.438 47.2917 299.042 46.8333 298.5 46.25C297.958 45.625 297.479 45.125 297.062 44.75L301.312 36.4375C303.396 32.6458 306.208 29.9375 309.75 28.3125C312.667 26.9792 315.562 26.3125 318.438 26.3125C319.104 26.3125 320.5 26.4375 322.625 26.6875C324.75 26.9375 326.833 28.1667 328.875 30.375C329.042 30.5833 330.167 31.8333 332.25 34.125C334.333 36.4167 336.75 39.1042 339.5 42.1875C342.292 45.2708 344.75 48.0625 346.875 50.5625C349.042 53.0625 350.292 54.5833 350.625 55.125C351.029 56.0938 351.3 57.0975 351.443 58.1357C351.627 58.0454 351.812 57.9584 352 57.875C354.792 56.625 357.562 56 360.312 56C360.854 56 362.083 56.1042 364 56.3125C365.917 56.4792 367.792 57.4167 369.625 59.125L370.375 59.875C370.875 60.2917 371.438 60.8125 372.062 61.4375C372.688 62.0625 373.292 62.6458 373.875 63.1875C374.25 63.5208 374.542 63.8125 374.75 64.0625C375 64.2708 375.125 64.3958 375.125 64.4375L376.312 62.25C377.812 59.75 379.854 57.9792 382.438 56.9375C385.062 55.8958 387.562 55.375 389.938 55.375C392.062 55.375 393.812 55.625 395.188 56.125C396.604 56.625 397.771 57.25 398.688 58C399.646 58.75 400.479 59.5 401.188 60.25C401.229 60.2917 401.271 60.3125 401.312 60.3125C401.438 60.4375 402.5 61.4792 404.5 63.4375C406.542 65.3542 408.875 67.5833 411.5 70.125C412.729 71.3149 413.889 72.4363 414.981 73.4893C415.389 72.567 415.895 71.4245 416.5 70.0625C418.167 66.3125 420.062 62.0417 422.188 57.25C424.312 52.4167 426.188 48.1458 427.812 44.4375L430.25 38.875C430.25 38.8333 430.229 38.7917 430.188 38.75L430.062 38.625C430.021 38.5833 429.979 38.5208 429.938 38.4375L429.875 38.375C428.958 37.25 428.5 36.0833 428.5 34.875C428.5 34.0833 428.708 33.2708 429.125 32.4375C431.083 28.9792 433.792 26.4167 437.25 24.75C440.083 23.4167 442.958 22.75 445.875 22.75C446.583 22.75 448 22.875 450.125 23.125C452.292 23.375 454.562 24.8125 456.938 27.4375C457.062 27.5625 458.083 28.7083 460 30.875C461.917 33.0417 464.125 35.5417 466.625 38.375C469.167 41.1667 471.396 43.6458 473.312 45.8125C475.229 47.9792 476.229 49.1042 476.312 49.1875C478.104 51.2708 479.083 53.4792 479.25 55.8125C479.292 56.1042 479.312 56.4167 479.312 56.75C479.312 58.7917 478.812 60.875 477.812 63L473.25 73.8125C470.167 81.0625 466.042 90.6458 460.875 102.562C460.542 103.354 460.188 104.167 459.812 105C458.354 108.458 456.688 112.125 454.812 116C452.979 119.833 450.875 123.312 448.5 126.438C446.125 129.562 443.5 131.771 440.625 133.062C442.417 135.354 443.438 137.792 443.688 140.375C443.729 140.833 443.75 141.312 443.75 141.812C443.75 143.812 443.25 145.854 442.25 147.938C441.292 150.021 439.729 151.792 437.562 153.25C435.438 154.75 432.896 155.5 429.938 155.5C428.021 155.5 426.167 155.104 424.375 154.312C422.625 153.562 421.042 152.375 419.625 150.75C419.542 150.708 418.854 149.958 417.562 148.5C416.639 147.458 415.557 146.235 414.314 144.831C410.868 147.901 406.868 150.874 402.312 153.75C400.479 157.625 398.375 161.667 396 165.875C393.625 170.083 390.979 174.167 388.062 178.125C385.146 182.125 382 185.729 378.625 188.938C375.25 192.146 371.646 194.708 367.812 196.625C363.979 198.583 360.646 199.562 357.812 199.562C355.021 199.562 352.854 199.417 351.312 199.125C349.812 198.833 348.146 198.229 346.312 197.312C344.479 196.438 342.667 195.146 340.875 193.438C340.75 193.312 339.604 192.188 337.438 190.062C335.229 187.979 332.688 185.562 329.812 182.812C326.938 180.062 324.417 177.625 322.25 175.5C320.083 173.417 318.938 172.312 318.812 172.188C315.271 168.771 313.208 164.438 312.625 159.188C312.542 158.562 312.5 157.917 312.5 157.25C312.5 156.764 312.521 156.274 312.562 155.781C311.814 155.676 311.043 155.563 310.25 155.438C305.292 154.646 301.146 152.521 297.812 149.062C297.658 148.908 296.683 147.825 294.887 145.814C294.351 146.17 293.806 146.525 293.25 146.875C290.417 149.917 287.458 152.125 284.375 153.5C281.333 154.875 277.792 155.562 273.75 155.562C270.042 155.562 266.354 154.646 262.688 152.812C259.021 150.979 255.479 148.646 252.062 145.812C251.617 145.438 251.176 145.06 250.738 144.68C250.514 144.913 250.289 145.145 250.062 145.375C247.188 148.333 244.125 150.729 240.875 152.562C237.625 154.438 234.146 155.375 230.438 155.375C225.479 155.292 221.625 153.646 218.875 150.438C215.292 153.062 212.271 154.562 209.812 154.938C208.271 155.188 206.958 155.312 205.875 155.312C205.25 155.312 204.688 155.271 204.188 155.188C203.854 155.146 203.542 155.125 203.25 155.125C199.792 154.833 196.25 153.292 192.625 150.5C191.758 149.842 190.902 149.153 190.057 148.434C189.015 149.324 187.956 150.159 186.875 150.938C182.75 153.979 178.271 155.562 173.438 155.688C171.062 155.688 168.438 154.771 165.562 152.938C162.729 151.104 159.875 148.792 157 146C154.125 143.25 151.438 140.396 148.938 137.438C146.479 134.479 144.417 131.812 142.75 129.438C141.083 127.062 140.021 125.375 139.562 124.375C138.229 121.125 137.562 117.521 137.562 113.562C137.562 112.869 137.628 111.508 137.759 109.479C136.501 109.309 135.206 109.108 133.875 108.875C130 116.625 126.271 123.583 122.688 129.75C119.146 135.958 115.229 141.938 110.938 147.688C105.479 154.938 100.146 160.875 94.9375 165.5C89.7708 170.125 84.8125 173.708 80.0625 176.25C75.3125 178.792 70.875 180.542 66.75 181.5C62.625 182.458 58.9167 182.938 55.625 182.938C52.125 182.938 48.7708 182.521 45.5625 181.688C42.3542 180.896 38.9375 179.292 35.3125 176.875C31.7292 174.458 27.6875 170.938 23.1875 166.312C18.6875 161.729 13.4583 155.708 7.5 148.25C3.625 143.208 1.25 137.208 0.375 130.25C0.125 128.375 0 126.521 0 124.688C0 119.562 0.895833 114.458 2.6875 109.375C6.10417 100.167 11.3333 93.1875 18.375 88.4375C25.4583 83.6875 33.75 80.3542 43.25 78.4375C40.125 75.2708 37.7917 72.75 36.25 70.875C34.7083 69 33.625 67.5417 33 66.5C32.4167 65.4583 32 64.5833 31.75 63.875L31.5 63.375C30 59.5417 29.25 55.625 29.25 51.625C29.25 45.625 30.875 39.4167 34.125 33C39.5417 23.1667 47.1458 15.875 56.9375 11.125C66.7292 6.375 77.4583 3.70833 89.125 3.125C91.0417 3.04167 92.9583 3 94.875 3C104.542 3 114 4.14583 123.25 6.4375C127.458 2.14583 132.167 0 137.375 0ZM318.438 31.3125C316.646 31.3125 314.792 31.6875 312.875 32.4375C309.875 33.6042 307.521 35.7083 305.812 38.75C305.979 38.7083 306.125 38.6875 306.25 38.6875C307.083 38.6875 307.667 39.125 308 40C308.083 40.2083 308.125 40.4792 308.125 40.8125C308.125 41.8958 307.625 43.5 306.625 45.625C300.75 57.75 295.854 68.0417 291.938 76.5C288.338 84.2735 284.563 92.6277 280.611 101.562C278.962 103.077 277.551 104.12 276.375 104.688C276.417 104.062 276.438 103.438 276.438 102.812C276.438 99.1875 275.729 95.7708 274.312 92.5625C272.688 88.7292 270.833 85.1875 268.75 81.9375C266.167 77.9375 264.458 74.3333 263.625 71.125C263.583 70.9167 263.562 70.7292 263.562 70.5625C263.562 69.6042 263.938 68.8542 264.688 68.3125C265.271 67.8542 265.917 67.625 266.625 67.625C266.875 67.625 267.146 67.6667 267.438 67.75C268.854 68.2083 269.729 70.0625 270.062 73.3125C271.646 73.1458 272.875 72.3958 273.75 71.0625C274.625 69.7292 275.062 68.3333 275.062 66.875C275.062 66.4167 275.021 65.9583 274.938 65.5C274.604 63.5 273.292 61.7083 271 60.125C268.792 58.75 266.229 58.0625 263.312 58.0625H263.062C260.062 58.1042 257.333 59 254.875 60.75C251.583 63.5417 249.833 66.875 249.625 70.75C249.458 74.5833 249.958 78.0625 251.125 81.1875C249 84.8125 246.75 88.2708 244.375 91.5625C240.625 91.7292 237.083 93.875 233.75 98C232.961 99.0574 232.324 100.16 231.84 101.307C231.073 101.911 230.315 102.435 229.562 102.875C227.354 104.167 225.667 104.812 224.5 104.812C223.917 104.812 223.417 104.688 223 104.438C222.458 104.104 222.188 103.479 222.188 102.562C222.188 101.354 222.688 99.5833 223.688 97.25C225.479 93.4167 227.083 90 228.5 87C231.208 81.4583 233.146 77.1667 234.312 74.125C235.479 71.0417 236.062 68.4375 236.062 66.3125C236.062 65.7708 236.021 65.25 235.938 64.75C235.521 62.7083 234.333 61.3125 232.375 60.5625C230.417 59.8125 228.583 59.4375 226.875 59.4375C226 59.4375 225.104 59.5208 224.188 59.6875C221.521 60.1042 219.521 61.25 218.188 63.125C219.146 63.4583 219.625 64.2083 219.625 65.375V65.625C219.583 66.9583 219.125 68.3125 218.25 69.6875C216.917 66.1875 214.812 63.6667 211.938 62.125C209.062 60.5833 206.188 59.8125 203.312 59.8125C202.062 59.8125 200.75 59.9375 199.375 60.1875C194.958 60.9792 190.521 63.5208 186.062 67.8125C181.646 72.0625 177.729 78.5 174.312 87.125C172.034 93.3618 170.78 99.0465 170.544 104.179C169.208 104.767 168.006 105.062 166.938 105.062C166.188 105.062 165.5 104.917 164.875 104.625C163.542 104 162.875 102.542 162.875 100.25C162.875 99.5 162.938 98.6875 163.062 97.8125C163.812 93.8958 165.5 88.5417 168.125 81.75C170.792 74.9583 173.479 68.5 176.188 62.375C178.938 56.2083 180.771 52.125 181.688 50.125C181.854 49.7917 181.958 49.5625 182 49.4375C184.25 44.6458 185.375 40.875 185.375 38.125C185.417 35.375 183.729 33.5625 180.312 32.6875C179.354 32.4792 178.375 32.375 177.375 32.375C175.542 32.375 173.375 32.8542 170.875 33.8125C168.417 34.7292 166.375 36.7083 164.75 39.75C164.917 39.7083 165.062 39.6875 165.188 39.6875C166.021 39.6875 166.625 40.125 167 41C167.125 41.25 167.188 41.5625 167.188 41.9375C167.188 42.9792 166.708 44.5208 165.75 46.5625C160.292 58.3125 155.792 68.375 152.25 76.75C148.708 85.0833 146.208 92.1042 144.75 97.8125C143.458 102.854 142.729 107.667 142.562 112.25V113.562C142.562 117.604 143.312 121.042 144.812 123.875C146.312 126.667 149.083 128.104 153.125 128.188C157.625 128.188 162.188 126.083 166.812 121.875C168.482 120.354 170.225 118.546 172.044 116.454C172.661 118.283 173.458 119.923 174.438 121.375C176.854 124.958 179.958 127.042 183.75 127.625C184.458 127.75 185.167 127.812 185.875 127.812C187.5 127.812 189.208 127.458 191 126.75C193.542 125.708 196.667 123.354 200.375 119.688C201.125 124.896 204.396 127.625 210.188 127.875C214.729 127.875 219.312 125.771 223.938 121.562C226.356 119.36 228.923 116.556 231.644 113.156C232.1 114.522 232.717 115.866 233.5 117.188C235.375 120.312 238.021 122.917 241.438 125C244.854 127.042 248.875 128.062 253.5 128.062C256.708 128.062 259.583 127.521 262.125 126.438C264.667 125.312 267.208 123.333 269.75 120.5C272.3 118.97 274.932 117.052 277.648 114.745C277.738 115.569 277.896 116.363 278.125 117.125C279.167 120.708 280.979 123.438 283.562 125.312C286.146 127.146 288.667 128.062 291.125 128.062C290.917 127.188 290.812 126.229 290.812 125.188C290.812 123.229 291.167 120.979 291.875 118.438C292.917 114.562 294.333 110.542 296.125 106.375C297.917 102.167 299.625 98.3333 301.25 94.875C301.792 93.7083 302.292 92.625 302.75 91.625C305.583 88.375 308.333 85.6042 311 83.3125C313.708 80.9792 315.583 79.8125 316.625 79.8125C317.667 79.7708 318.188 80.2292 318.188 81.1875C318.188 82.0625 317.896 83.3333 317.312 85C315.438 88.9583 313.479 93.375 311.438 98.25C309.438 103.125 308.021 107.292 307.188 110.75C306.354 114.208 305.938 116.917 305.938 118.875C305.938 120.583 306.167 122.125 306.625 123.5C307.583 126.417 310.083 127.938 314.125 128.062C318.833 128.062 323.625 125.979 328.5 121.812C331.43 119.304 334.543 116.017 337.843 111.955C337.942 114.124 338.287 116.264 338.875 118.375C339.792 122.5 341.354 125.188 343.562 126.438C345.812 127.646 348 128.188 350.125 128.062C352.292 127.938 354.938 127.021 358.062 125.312L357.25 126.938C345.417 129.812 336.354 133.5 330.062 138C323.729 142.542 319.979 147.5 318.812 152.875C317.604 158.292 318.042 162.646 320.125 165.938C321.958 168.896 324.167 170.792 326.75 171.625C329.333 172.458 331.417 172.875 333 172.875C335.625 172.875 338.521 172.25 341.688 171C346.771 169.042 352.229 164.708 358.062 158C363.896 151.292 369.833 141.5 375.875 128.625C379.458 126.583 383.542 123.625 388.125 119.75C392.75 115.833 397.667 110.062 402.875 102.438L401.5 100.438C400.625 99.1042 399.833 97.9375 399.125 96.9375C393.25 104.229 387.979 109.5 383.312 112.75C387.062 102.958 391.062 91.7917 395.312 79.25C395.354 79.0833 395.417 78.9167 395.5 78.75C396.375 76.25 397.021 74.0625 397.438 72.1875C397.896 70.3125 398.125 68.8125 398.125 67.6875C398.125 66.6458 398 65.6667 397.75 64.75C397.208 62.875 395.729 61.5625 393.312 60.8125C392.229 60.5208 391.104 60.375 389.938 60.375C388.771 60.375 387.562 60.5208 386.312 60.8125C383.771 61.4375 381.896 62.7292 380.688 64.6875C381.562 64.8958 382 65.625 382 66.875C382 67.375 381.938 67.9583 381.812 68.625C381.271 70.9583 380.354 73.875 379.062 77.375L378.938 77.625C375.646 86.625 373.146 92.8333 371.438 96.25C371.021 97.125 370.708 97.8125 370.5 98.3125C368.042 102.979 365.812 105.771 363.812 106.688C361.854 107.604 360.375 108.062 359.375 108.062C358.167 108.062 357.146 107.625 356.312 106.75C355.479 105.833 355.062 104.542 355.062 102.875C355.062 101.583 355.312 100.062 355.812 98.3125C357.396 93.7708 359.312 89.1667 361.562 84.5C363.354 80.6667 364.812 77.25 365.938 74.25C367.062 71.2083 367.625 68.6875 367.625 66.6875C367.625 66.3125 367.604 65.9375 367.562 65.5625C367.312 63.3542 365.875 61.9375 363.25 61.3125C362.292 61.1042 361.333 61 360.375 61C358.583 61 356.792 61.3333 355 62C352.208 63 349.979 65 348.312 68H348.625C350.042 68 350.75 68.6458 350.75 69.9375C350.75 70.3125 350.688 70.7708 350.562 71.3125C349.938 73.6875 348.646 76.9167 346.688 81C345.062 84.5 343.417 88.3542 341.75 92.5625C340.667 95.3661 339.835 97.9203 339.252 100.225C337.216 102.516 335.591 103.921 334.375 104.438C332.75 105.104 331.562 105.438 330.812 105.438C329.771 105.438 328.979 105.042 328.438 104.25C328.062 103.667 327.875 102.938 327.875 102.062C327.875 100.896 328.229 99.4375 328.938 97.6875C330.646 93.8125 332.521 89.7708 334.562 85.5625C336.229 82.1458 337.729 78.9375 339.062 75.9375C339.104 75.8125 339.146 75.7083 339.188 75.625C340.729 72.5 341.646 69.5208 341.938 66.6875C342.229 63.8542 341.354 61.7708 339.312 60.4375C338.104 59.6875 336.542 59.3125 334.625 59.3125C332.958 59.3125 331.042 59.6042 328.875 60.1875C324.25 61.3958 319.062 64.1875 313.312 68.5625C319.396 55.3542 322.5 48.6875 322.625 48.5625C325 43.7292 326.208 39.9375 326.25 37.1875C326.333 34.3958 324.729 32.5625 321.438 31.6875C320.479 31.4375 319.479 31.3125 318.438 31.3125ZM138.062 5.1875C135.312 5.0625 132.812 5.625 130.562 6.875C128.354 8.125 126.542 9.875 125.125 12.125C118 10.0833 111.792 8.875 106.5 8.5C101.208 8.125 97.5 7.9375 95.375 7.9375C88.875 7.9375 82.2083 8.60417 75.375 9.9375C64.0833 12.4375 55.1458 16.6875 48.5625 22.6875C41.9792 28.6875 37.8958 34.1875 36.3125 39.1875C34.7708 44.1458 34.0625 48.3333 34.1875 51.75C34.1875 55.1667 34.8125 58.3958 36.0625 61.4375C38.1042 65.9792 40.8958 69.1667 44.4375 71C48.0208 72.8333 51.5208 73.75 54.9375 73.75C55.7708 73.75 56.6042 73.7083 57.4375 73.625C61.6875 73.1667 65.3542 71.4792 68.4375 68.5625C71.5208 65.6458 73.2083 61.5417 73.5 56.25C72.875 56.25 71.9167 56.0417 70.625 55.625C69.3333 55.2083 68.2083 54.4375 67.25 53.3125C66.2917 52.1458 65.9375 49.875 66.1875 46.5C66.4792 43.125 68.4583 39.75 72.125 36.375C75.7917 32.9583 80.375 30.0625 85.875 27.6875C91.4167 25.3125 96.5833 23.7292 101.375 22.9375C106.167 22.1458 110.188 21.75 113.438 21.75C115.771 21.75 118.021 21.8958 120.188 22.1875C115.438 31.5208 111.708 38.75 109 43.875C106.333 49 104.208 52.9792 102.625 55.8125C101.042 58.6458 99.5417 61.2917 98.125 63.75C94.8333 63.125 91.8125 62.8125 89.0625 62.8125C84.9375 62.8125 81.4583 63.5208 78.625 64.9375C73.9167 67.2708 70.9792 69.9167 69.8125 72.875C68.6458 75.8333 68.0625 78.1875 68.0625 79.9375C68.0625 81.4375 68.3542 82.8333 68.9375 84.125C69.4792 83.125 70.625 81.9375 72.375 80.5625C74.1667 79.1875 76.0833 78.2708 78.125 77.8125C80.1667 77.3542 81.8125 77.125 83.0625 77.125C85.1458 77.125 87.4167 77.4583 89.875 78.125C86.9167 82.875 83.5833 87.75 79.875 92.75C76.1667 97.75 72.3125 102.167 68.3125 106C63.3542 110.417 58.4167 112.75 53.5 113C48.5833 113.25 44.75 112.271 42 110.062C38.8333 107.521 37.0833 103.792 36.75 98.875C36.4583 93.9167 37.8125 88.9792 40.8125 84.0625C31.1042 86.3542 23.5208 90.0417 18.0625 95.125C12.6042 100.167 9.0625 105.333 7.4375 110.625C5.8125 115.875 5 120.542 5 124.625C5 126.583 5.14583 128.521 5.4375 130.438C6.35417 136.312 8.33333 141.208 11.375 145.125C13.9167 148.375 17.3333 150.896 21.625 152.688C25.9583 154.479 30.4583 155.375 35.125 155.375C36.75 155.375 38.4375 155.292 40.1875 155.125C46.9375 154.417 54.25 151.521 62.125 146.438C70.0417 141.354 78.2083 133.271 86.625 122.188C90.9583 116.354 94.9792 110.167 98.6875 103.625C102.438 97.0833 106.5 89.4583 110.875 80.75C117.083 82.0417 122.458 82.6875 127 82.6875C129.958 82.6875 132.562 82.4167 134.812 81.875C140.521 80.4583 144.25 78.2917 146 75.375C147.792 72.4583 148.688 69.6875 148.688 67.0625C148.688 66.2292 148.604 65.375 148.438 64.5C147.812 60.9583 146.333 58.1458 144 56.0625C142.958 59.3958 141.021 61.875 138.188 63.5C135.354 65.125 132.771 66.0417 130.438 66.25C128.104 66.4167 126.375 66.5 125.25 66.5C122.875 66.5 120.542 66.2917 118.25 65.875C123.042 56 127.125 47.3958 130.5 40.0625C133.417 33.7708 135.938 28.4375 138.062 24.0625C142.521 23.1875 145.354 20.9583 146.562 17.375C147.771 13.7917 147.438 10.8958 145.562 8.6875C143.354 6.4375 140.854 5.27083 138.062 5.1875ZM354.938 134.938C352.312 140.188 349.646 144.083 346.938 146.625C344.271 149.208 342.167 150.708 340.625 151.125C339.083 151.583 337.958 151.812 337.25 151.812C336.5 151.812 335.917 151.646 335.5 151.312C334.583 150.479 334.125 149.604 334.125 148.688C334.125 147.979 334.375 147.25 334.875 146.5C336.083 144.708 338.021 142.938 340.688 141.188C343.354 139.479 346.042 138.042 348.75 136.875C351.5 135.708 353.562 135.062 354.938 134.938ZM409.938 110.5C407.438 110.5 405.354 111.375 403.688 113.125C402.062 114.833 401.25 116.896 401.25 119.312C401.25 121.771 402.083 123.833 403.75 125.5C405.458 127.167 407.521 128 409.938 128C412.354 128 414.417 127.167 416.125 125.5C417.833 123.833 418.688 121.771 418.688 119.312C418.688 116.854 417.833 114.771 416.125 113.062C414.417 111.354 412.354 110.5 409.938 110.5ZM207.938 75.75C208.479 75.75 209 75.875 209.5 76.125C211.25 76.875 212.146 79.5208 212.188 84.0625C209.104 91.0208 206.646 96.6875 204.812 101.062C202.646 104.979 200.938 107.104 199.688 107.438C198.479 107.729 197.667 107.875 197.25 107.875C195.875 107.875 194.729 107.167 193.812 105.75C192.938 104.375 192.5 102.625 192.5 100.5C192.5 99.7917 192.542 99.0625 192.625 98.3125C193.333 93.9375 194.708 89.9167 196.75 86.25C198.792 82.5833 200.812 79.9167 202.812 78.25C204.854 76.5833 206.562 75.75 207.938 75.75ZM445.938 27.75C443.938 27.75 441.896 28.2083 439.812 29.125C437.146 30.25 435.062 32.1458 433.562 34.8125V35C433.604 35.0833 433.667 35.125 433.75 35.125H433.875C434.75 35.125 435.333 35.625 435.625 36.625C435.667 36.8333 435.688 37.0833 435.688 37.375C435.688 38.4583 435.25 40 434.375 42C432.042 47.0833 429.083 53.7292 425.5 61.9375C423.75 65.9375 421.833 70.3333 419.75 75.125C419.292 76.1667 418.812 77.25 418.312 78.375C416.604 82 415 85.7708 413.5 89.6875C412.042 93.5625 411.271 96.3125 411.188 97.9375C411.104 99.5208 411.062 100.417 411.062 100.625C411.062 103.292 412.104 105.083 414.188 106C414.938 106.25 415.667 106.375 416.375 106.375C418.5 106.375 420.562 105.312 422.562 103.188C425.188 100.312 427.583 96.7083 429.75 92.375C431.917 88 433.729 84.0208 435.188 80.4375C435.562 79.5625 435.917 78.7708 436.25 78.0625C441.042 66.9792 445.021 57.6875 448.188 50.1875C451.396 42.6875 453.062 38.75 453.188 38.375C453.896 36.75 454.25 35.2917 454.25 34C454.25 32.875 453.958 31.8958 453.375 31.0625C452.125 29.3125 450.708 28.3333 449.125 28.125C447.583 27.875 446.521 27.75 445.938 27.75ZM255.062 89.9375C255.062 89.9792 255.083 90 255.125 90L255.25 90.25V90.375C256.375 92.4167 257.292 94.4375 258 96.4375C258.417 97.7292 258.625 98.8958 258.625 99.9375C258.625 101.104 258.333 102.104 257.75 102.938C257 103.729 256.271 104.125 255.562 104.125C255.396 104.125 255.229 104.104 255.062 104.062C254.229 103.771 253.812 103.125 253.812 102.125C253.812 101.083 254.604 100 256.188 98.875C255.396 97.4583 254.521 96.2708 253.562 95.3125C253.062 94.8542 252.583 94.4375 252.125 94.0625C253.167 92.6458 254.146 91.2708 255.062 89.9375Z" fill="white"/>
</svg>
